<svg id="visual" viewBox="0 0 1920 125" width="1920" height="125" xmlns="http://www.w3.org/2000/svg" xmlns:xlink="http://www.w3.org/1999/xlink" version="1.1"><rect x="0" y="0" width="1920" height="125" fill="#0b0c10"></rect><path d="M0 59L20 66C40 73 80 87 120 91.5C160 96 200 91 240 84.8C280 78.7 320 71.3 360 72.7C400 74 440 84 480 88.8C520 93.7 560 93.3 600 91.8C640 90.3 680 87.7 720 85C760 82.3 800 79.7 840 77.5C880 75.3 920 73.7 960 77C1000 80.3 1040 88.7 1080 90.8C1120 93 1160 89 1200 83.2C1240 77.3 1280 69.7 1320 70.5C1360 71.3 1400 80.7 1440 85.2C1480 89.7 1520 89.3 1560 88.8C1600 88.3 1640 87.7 1680 89.2C1720 90.7 1760 94.3 1800 95C1840 95.7 1880 93.3 1900 92.2L1920 91L1920 126L1900 126C1880 126 1840 126 1800 126C1760 126 1720 126 1680 126C1640 126 1600 126 1560 126C1520 126 1480 126 1440 126C1400 126 1360 126 1320 126C1280 126 1240 126 1200 126C1160 126 1120 126 1080 126C1040 126 1000 126 960 126C920 126 880 126 840 126C800 126 760 126 720 126C680 126 640 126 600 126C560 126 520 126 480 126C440 126 400 126 360 126C320 126 280 126 240 126C200 126 160 126 120 126C80 126 40 126 20 126L0 126Z" fill="#1f2833" stroke-linecap="round" stroke-linejoin="miter"></path></svg>